<svg xmlns="http://www.w3.org/2000/svg" viewBox="0 0 64 64">
  <rect width="64" height="64" rx="14" fill="#FAFAF8"/>
  <!-- Connection lines -->
  <line x1="32" y1="32" x2="32" y2="10" stroke="rgba(15,138,138,0.25)" stroke-width="1" stroke-linecap="round"/>
  <line x1="32" y1="32" x2="54" y2="32" stroke="rgba(15,138,138,0.25)" stroke-width="1" stroke-linecap="round"/>
  <line x1="32" y1="32" x2="32" y2="54" stroke="rgba(15,138,138,0.25)" stroke-width="1" stroke-linecap="round"/>
  <line x1="32" y1="32" x2="10" y2="32" stroke="rgba(15,138,138,0.25)" stroke-width="1" stroke-linecap="round"/>
  <!-- Non-cardinal dots (stone) -->
  <circle cx="43" cy="12.95" r="1.6" fill="#78716c"/>
  <circle cx="51.05" cy="21" r="1.6" fill="#78716c"/>
  <circle cx="51.05" cy="43" r="1.6" fill="#78716c"/>
  <circle cx="43" cy="51.05" r="1.6" fill="#78716c"/>
  <circle cx="21" cy="51.05" r="1.6" fill="#78716c"/>
  <circle cx="12.95" cy="43" r="1.6" fill="#78716c"/>
  <circle cx="12.95" cy="21" r="1.6" fill="#78716c"/>
  <circle cx="21" cy="12.95" r="1.6" fill="#78716c"/>
  <!-- Cardinal dots (pastel palette) -->
  <circle cx="32" cy="10" r="3" fill="#5DCAA5"/>
  <circle cx="54" cy="32" r="3" fill="#8B7CF0"/>
  <circle cx="32" cy="54" r="3" fill="#E8C86A"/>
  <circle cx="10" cy="32" r="3" fill="#E89A7A"/>
  <!-- Center hub -->
  <circle cx="32" cy="32" r="5" fill="#0F8A8A" stroke="#fff" stroke-width="1.5"/>
  <circle cx="32" cy="32" r="2" fill="#ffffff" opacity="0.9"/>
</svg>
